<?xml version="1.0" standalone="no"?>
<!DOCTYPE svg PUBLIC "-//W3C//DTD SVG 20010904//EN"
 "http://www.w3.org/TR/2001/REC-SVG-20010904/DTD/svg10.dtd">
<svg version="1.0" xmlns="http://www.w3.org/2000/svg"
 width="160.000000pt" height="160.000000pt" viewBox="0 0 160.000000 160.000000"
 preserveAspectRatio="xMidYMid meet">
<metadata>
Created by potrace 1.11, written by Peter Selinger 2001-2013
</metadata>
<g transform="translate(0.000000,160.000000) scale(0.100000,-0.100000)"
fill="#000000" stroke="none">
<path d="M768 1555 c-2 -2 -30 -5 -63 -8 -157 -15 -326 -98 -450 -222 -77 -76
-158 -222 -191 -345 -26 -97 -24 -272 4 -373 71 -251 257 -447 499 -524 98
-31 131 -36 233 -35 135 1 219 19 330 73 253 125 412 366 425 649 8 152 -45
335 -133 462 -102 147 -292 271 -467 307 -57 11 -180 22 -187 16z"/>
</g>
</svg>
